<?xml version="1.0" encoding="UTF-8"?>
<svg xmlns="http://www.w3.org/2000/svg" xmlns:xlink="http://www.w3.org/1999/xlink" width="375pt" height="374.999991pt" viewBox="0 0 375 374.999991" version="1.2">
<defs>
<clipPath id="clip1">
  <path d="M 0 9.375 L 375 9.375 L 375 365.625 L 0 365.625 Z M 0 9.375 "/>
</clipPath>
<clipPath id="clip2">
  <path d="M 0 9.375 L 375 9.375 L 375 365.625 L 0 365.625 Z M 0 9.375 "/>
</clipPath>
</defs>
<g id="surface1">
<g clip-path="url(#clip1)" clip-rule="nonzero">
<path style=" stroke:none;fill-rule:nonzero;fill:rgb(86.669922%,17.248535%,0%);fill-opacity:1;" d="M 375 290.625 C 375 184.6875 337.5 140.625 337.5 140.625 L 362.8125 161.25 C 346.875 74.0625 282.1875 9.375 187.5 9.375 C 92.8125 9.375 27.1875 74.0625 12.1875 161.25 L 37.5 140.625 C 37.5 140.625 0 184.6875 0 290.625 C 9.375 273.75 19.6875 257.8125 28.125 243.75 C 23.4375 257.8125 3.75 323.4375 18.75 365.625 C 58.125 346.875 121.875 337.5 187.5 337.5 C 253.125 337.5 315.9375 346.875 356.25 365.625 C 371.25 323.4375 351.5625 257.8125 346.875 243.75 C 355.3125 257.8125 365.625 273.75 375 290.625 Z M 375 290.625 "/>
</g>
<path style=" stroke:none;fill-rule:nonzero;fill:rgb(100%,65.489197%,14.898682%);fill-opacity:1;" d="M 103.125 220.3125 C 103.125 238.125 88.125 253.125 75 253.125 C 61.875 253.125 56.25 227.8125 56.25 209.0625 C 56.25 190.3125 66.5625 187.5 79.6875 187.5 C 92.8125 187.5 103.125 202.5 103.125 220.3125 Z M 271.875 220.3125 C 271.875 238.125 286.875 253.125 300 253.125 C 313.125 253.125 318.75 227.8125 318.75 209.0625 C 318.75 190.3125 308.4375 187.5 295.3125 187.5 C 282.1875 187.5 271.875 202.5 271.875 220.3125 Z M 271.875 220.3125 "/>
<path style=" stroke:none;fill-rule:nonzero;fill:rgb(100%,71.759033%,30.198669%);fill-opacity:1;" d="M 299.0625 242.8125 C 299.0625 242.8125 298.125 221.25 286.875 141.5625 C 282.1875 103.125 258.75 84.375 235.3125 75 C 235.3125 75 234.375 75 234.375 75 C 217.5 75 215.625 93.75 215.625 93.75 C 215.625 104.0625 207.1875 103.125 196.875 103.125 L 178.125 103.125 C 167.8125 103.125 159.375 104.0625 159.375 93.75 C 159.375 93.75 157.5 75 140.625 75 C 140.625 75 139.6875 75 139.6875 75 C 116.25 84.375 92.8125 103.125 88.125 141.5625 C 76.875 221.25 75.9375 242.8125 75.9375 242.8125 C 75.9375 242.8125 64.6875 290.625 126.5625 329.0625 C 161.25 350.625 167.8125 346.875 186.5625 346.875 C 205.3125 346.875 213.75 350.625 248.4375 329.0625 C 310.3125 290.625 299.0625 242.8125 299.0625 242.8125 Z M 299.0625 242.8125 "/>
<path style=" stroke:none;fill-rule:nonzero;fill:rgb(100%,100%,100%);fill-opacity:1;" d="M 140.625 215.625 C 125.625 215.625 112.5 222.1875 112.5 206.25 L 112.5 196.875 C 112.5 181.875 124.6875 168.75 140.625 168.75 L 168.75 206.25 C 168.75 222.1875 155.625 215.625 140.625 215.625 Z M 262.5 206.25 L 262.5 196.875 C 262.5 181.875 250.3125 168.75 234.375 168.75 L 206.25 206.25 C 206.25 221.25 219.375 215.625 234.375 215.625 C 249.375 215.625 262.5 222.1875 262.5 206.25 Z M 262.5 206.25 "/>
<path style=" stroke:none;fill-rule:nonzero;fill:rgb(12.939453%,58.81958%,95.289612%);fill-opacity:1;" d="M 253.125 206.25 C 253.125 210 252.1875 213.75 250.3125 216.5625 C 245.625 216.5625 240.9375 215.625 234.375 215.625 C 227.8125 215.625 223.125 216.5625 218.4375 216.5625 C 216.5625 213.75 215.625 210 215.625 206.25 C 215.625 195.9375 224.0625 187.5 234.375 187.5 C 244.6875 187.5 253.125 195.9375 253.125 206.25 Z M 140.625 187.5 C 130.3125 187.5 121.875 195.9375 121.875 206.25 C 121.875 210 122.8125 213.75 124.6875 216.5625 C 129.375 216.5625 134.0625 215.625 140.625 215.625 C 147.1875 215.625 151.875 216.5625 156.5625 216.5625 C 158.4375 213.75 159.375 210 159.375 206.25 C 159.375 195.9375 150.9375 187.5 140.625 187.5 Z M 140.625 187.5 "/>
<path style=" stroke:none;fill-rule:nonzero;fill:rgb(14.898682%,19.60907%,21.958923%);fill-opacity:1;" d="M 150 206.25 C 150 211.875 146.25 215.625 140.625 215.625 C 135 215.625 131.25 211.875 131.25 206.25 C 131.25 200.625 135 196.875 140.625 196.875 C 146.25 196.875 150 200.625 150 206.25 Z M 234.375 196.875 C 228.75 196.875 225 200.625 225 206.25 C 225 211.875 228.75 215.625 234.375 215.625 C 240 215.625 243.75 211.875 243.75 206.25 C 243.75 200.625 240 196.875 234.375 196.875 Z M 234.375 196.875 "/>
<path style=" stroke:none;fill-rule:nonzero;fill:rgb(74.899292%,21.179199%,4.708862%);fill-opacity:1;" d="M 234.375 271.875 C 234.375 271.875 218.4375 309.375 187.5 309.375 C 156.5625 309.375 140.625 271.875 140.625 271.875 C 140.625 271.875 156.5625 262.5 187.5 262.5 C 218.4375 262.5 234.375 271.875 234.375 271.875 Z M 234.375 271.875 "/>
<path style=" stroke:none;fill-rule:nonzero;fill:rgb(100%,100%,100%);fill-opacity:1;" d="M 187.5 262.5 C 194.0625 262.5 200.625 263.4375 206.25 263.4375 C 205.3125 267.1875 203.4375 281.25 196.875 281.25 C 190.3125 281.25 187.5 262.5 187.5 262.5 Z M 206.25 263.4375 C 207.1875 267.1875 210 280.3125 215.625 281.25 C 222.1875 282.1875 234.375 271.875 234.375 271.875 C 234.375 271.875 225 266.25 206.25 263.4375 Z M 178.125 281.25 C 185.625 281.25 187.5 262.5 187.5 262.5 C 180.9375 262.5 174.375 263.4375 168.75 263.4375 C 169.6875 268.125 172.5 281.25 178.125 281.25 Z M 168.75 263.4375 C 150 266.25 140.625 271.875 140.625 271.875 C 140.625 271.875 152.8125 282.1875 159.375 281.25 C 165 280.3125 167.8125 268.125 168.75 263.4375 Z M 168.75 263.4375 "/>
<g clip-path="url(#clip2)" clip-rule="nonzero">
<path style="fill:none;stroke-width:2;stroke-linecap:butt;stroke-linejoin:miter;stroke:rgb(100%,42.749023%,0%);stroke-opacity:1;stroke-miterlimit:10;" d="M 15 20.000001 C 20.800001 20.500001 23.000001 26.000001 23.000001 26.000001 C 23.000001 26.000001 24.000001 27.600002 25.000001 26.000001 C 25.000001 26.000001 27.300001 20.500001 33.000001 20.000001 " transform="matrix(9.374999,0,0,9.374999,-37.499993,-37.499998)"/>
</g>
</g>
</svg>
