<?xml version="1.0" encoding="UTF-8"?>
<svg xmlns="http://www.w3.org/2000/svg" xmlns:xlink="http://www.w3.org/1999/xlink" width="375pt" height="374.999991pt" viewBox="0 0 375 374.999991" version="1.2">
<defs>
<filter id="alpha" filterUnits="objectBoundingBox" x="0%" y="0%" width="100%" height="100%">
  <feColorMatrix type="matrix" in="SourceGraphic" values="0 0 0 0 1 0 0 0 0 1 0 0 0 0 1 0 0 0 1 0"/>
</filter>
<mask id="mask0">
  <g filter="url(#alpha)">
<rect x="0" y="0" width="375" height="374.999991" style="fill:rgb(0%,0%,0%);fill-opacity:0.898;stroke:none;"/>
  </g>
</mask>
<clipPath id="clip2">
  <path d="M 0.121094 0.921875 L 356.761719 0.921875 L 356.761719 357.558594 L 0.121094 357.558594 Z M 0.121094 0.921875 "/>
</clipPath>
<clipPath id="clip1">
  <rect x="0" y="0" width="357" height="358"/>
</clipPath>
<g id="surface5" clip-path="url(#clip1)">
<g clip-path="url(#clip2)" clip-rule="nonzero">
<path style=" stroke:none;fill-rule:nonzero;fill:rgb(32.939148%,32.939148%,32.939148%);fill-opacity:1;" d="M 178.5 0.996094 C 175.582031 0.996094 172.667969 1.066406 169.757812 1.210938 C 166.84375 1.355469 163.9375 1.566406 161.035156 1.855469 C 158.132812 2.140625 155.238281 2.496094 152.355469 2.925781 C 149.46875 3.351562 146.597656 3.851562 143.738281 4.417969 C 140.875 4.988281 138.03125 5.628906 135.203125 6.335938 C 132.375 7.042969 129.566406 7.820312 126.773438 8.667969 C 123.984375 9.515625 121.214844 10.429688 118.46875 11.410156 C 115.722656 12.394531 113.003906 13.445312 110.308594 14.558594 C 107.617188 15.675781 104.949219 16.855469 102.3125 18.105469 C 99.679688 19.351562 97.074219 20.660156 94.503906 22.035156 C 91.929688 23.410156 89.394531 24.847656 86.890625 26.347656 C 84.390625 27.847656 81.929688 29.40625 79.503906 31.027344 C 77.078125 32.644531 74.695312 34.324219 72.351562 36.0625 C 70.011719 37.800781 67.710938 39.59375 65.457031 41.441406 C 63.203125 43.292969 60.996094 45.195312 58.835938 47.15625 C 56.675781 49.113281 54.5625 51.125 52.5 53.1875 C 50.4375 55.25 48.429688 57.359375 46.46875 59.519531 C 44.511719 61.679688 42.609375 63.890625 40.757812 66.144531 C 38.90625 68.398438 37.113281 70.695312 35.378906 73.039062 C 33.640625 75.378906 31.960938 77.761719 30.339844 80.1875 C 28.722656 82.613281 27.160156 85.074219 25.664062 87.578125 C 24.164062 90.078125 22.726562 92.617188 21.351562 95.1875 C 19.976562 97.757812 18.664062 100.363281 17.417969 103 C 16.171875 105.636719 14.992188 108.300781 13.875 110.996094 C 12.757812 113.6875 11.710938 116.410156 10.726562 119.15625 C 9.746094 121.902344 8.832031 124.667969 7.984375 127.460938 C 7.136719 130.25 6.359375 133.058594 5.652344 135.886719 C 4.941406 138.71875 4.304688 141.5625 3.734375 144.421875 C 3.164062 147.28125 2.667969 150.15625 2.238281 153.039062 C 1.8125 155.921875 1.453125 158.816406 1.167969 161.71875 C 0.882812 164.621094 0.667969 167.527344 0.527344 170.441406 C 0.382812 173.355469 0.3125 176.269531 0.3125 179.183594 C 0.3125 182.101562 0.382812 185.015625 0.527344 187.929688 C 0.667969 190.839844 0.882812 193.75 1.167969 196.652344 C 1.453125 199.550781 1.8125 202.445312 2.238281 205.332031 C 2.667969 208.214844 3.164062 211.085938 3.734375 213.949219 C 4.304688 216.808594 4.941406 219.652344 5.652344 222.480469 C 6.359375 225.308594 7.136719 228.121094 7.984375 230.910156 C 8.832031 233.699219 9.746094 236.46875 10.726562 239.214844 C 11.710938 241.960938 12.757812 244.679688 13.875 247.375 C 14.992188 250.070312 16.171875 252.734375 17.417969 255.371094 C 18.664062 258.007812 19.976562 260.609375 21.351562 263.183594 C 22.726562 265.753906 24.164062 268.289062 25.664062 270.792969 C 27.160156 273.292969 28.722656 275.757812 30.339844 278.179688 C 31.960938 280.605469 33.640625 282.988281 35.378906 285.332031 C 37.113281 287.675781 38.90625 289.972656 40.757812 292.226562 C 42.609375 294.480469 44.511719 296.6875 46.46875 298.847656 C 48.429688 301.011719 50.4375 303.121094 52.5 305.183594 C 54.5625 307.246094 56.675781 309.253906 58.835938 311.214844 C 60.996094 313.171875 63.203125 315.078125 65.457031 316.925781 C 67.710938 318.777344 70.011719 320.570312 72.351562 322.308594 C 74.695312 324.042969 77.078125 325.722656 79.503906 327.34375 C 81.929688 328.964844 84.390625 330.523438 86.890625 332.023438 C 89.394531 333.523438 91.929688 334.957031 94.503906 336.332031 C 97.074219 337.707031 99.679688 339.019531 102.3125 340.265625 C 104.949219 341.511719 107.617188 342.695312 110.308594 343.808594 C 113.003906 344.925781 115.722656 345.976562 118.46875 346.957031 C 121.214844 347.941406 123.984375 348.855469 126.773438 349.699219 C 129.566406 350.546875 132.375 351.324219 135.203125 352.035156 C 138.03125 352.742188 140.875 353.382812 143.738281 353.949219 C 146.597656 354.519531 149.46875 355.015625 152.355469 355.445312 C 155.238281 355.875 158.132812 356.230469 161.035156 356.515625 C 163.9375 356.800781 166.84375 357.015625 169.757812 357.160156 C 172.667969 357.300781 175.582031 357.375 178.5 357.375 C 181.417969 357.375 184.332031 357.300781 187.242188 357.160156 C 190.15625 357.015625 193.0625 356.800781 195.964844 356.515625 C 198.867188 356.230469 201.761719 355.875 204.644531 355.445312 C 207.53125 355.015625 210.402344 354.519531 213.261719 353.949219 C 216.125 353.382812 218.96875 352.742188 221.796875 352.035156 C 224.625 351.324219 227.433594 350.546875 230.226562 349.699219 C 233.015625 348.855469 235.785156 347.941406 238.53125 346.957031 C 241.277344 345.976562 243.996094 344.925781 246.691406 343.808594 C 249.382812 342.695312 252.050781 341.511719 254.6875 340.265625 C 257.320312 339.019531 259.925781 337.707031 262.496094 336.332031 C 265.070312 334.957031 267.605469 333.523438 270.105469 332.023438 C 272.609375 330.523438 275.070312 328.964844 277.496094 327.34375 C 279.921875 325.722656 282.304688 324.042969 284.648438 322.308594 C 286.988281 320.570312 289.289062 318.777344 291.542969 316.925781 C 293.796875 315.078125 296.003906 313.171875 298.164062 311.214844 C 300.324219 309.253906 302.4375 307.246094 304.5 305.183594 C 306.5625 303.121094 308.570312 301.011719 310.527344 298.847656 C 312.488281 296.6875 314.390625 294.480469 316.242188 292.226562 C 318.09375 289.972656 319.886719 287.675781 321.621094 285.332031 C 323.359375 282.988281 325.039062 280.605469 326.660156 278.179688 C 328.277344 275.757812 329.839844 273.292969 331.335938 270.792969 C 332.835938 268.289062 334.273438 265.753906 335.648438 263.183594 C 337.023438 260.609375 338.335938 258.007812 339.582031 255.371094 C 340.828125 252.734375 342.007812 250.070312 343.125 247.375 C 344.242188 244.679688 345.289062 241.960938 346.273438 239.214844 C 347.253906 236.46875 348.167969 233.699219 349.015625 230.910156 C 349.863281 228.121094 350.640625 225.308594 351.347656 222.480469 C 352.058594 219.652344 352.695312 216.808594 353.265625 213.949219 C 353.835938 211.085938 354.332031 208.214844 354.761719 205.332031 C 355.1875 202.445312 355.546875 199.550781 355.832031 196.652344 C 356.117188 193.75 356.332031 190.839844 356.472656 187.929688 C 356.617188 185.015625 356.6875 182.101562 356.6875 179.183594 C 356.6875 176.269531 356.617188 173.355469 356.472656 170.441406 C 356.332031 167.527344 356.117188 164.621094 355.832031 161.71875 C 355.546875 158.816406 355.1875 155.921875 354.761719 153.039062 C 354.332031 150.15625 353.835938 147.28125 353.265625 144.421875 C 352.695312 141.5625 352.058594 138.71875 351.347656 135.886719 C 350.640625 133.058594 349.863281 130.25 349.015625 127.460938 C 348.167969 124.667969 347.253906 121.902344 346.273438 119.15625 C 345.289062 116.410156 344.242188 113.6875 343.125 110.996094 C 342.007812 108.300781 340.828125 105.636719 339.582031 103 C 338.335938 100.363281 337.023438 97.757812 335.648438 95.1875 C 334.273438 92.617188 332.835938 90.078125 331.335938 87.578125 C 329.839844 85.074219 328.277344 82.613281 326.660156 80.1875 C 325.039062 77.761719 323.359375 75.378906 321.621094 73.039062 C 319.886719 70.695312 318.09375 68.398438 316.242188 66.144531 C 314.390625 63.890625 312.488281 61.679688 310.527344 59.519531 C 308.570312 57.359375 306.5625 55.25 304.5 53.1875 C 302.4375 51.125 300.324219 49.113281 298.164062 47.15625 C 296.003906 45.195312 293.796875 43.292969 291.542969 41.441406 C 289.289062 39.59375 286.988281 37.800781 284.648438 36.0625 C 282.304688 34.324219 279.921875 32.644531 277.496094 31.027344 C 275.070312 29.40625 272.609375 27.847656 270.105469 26.347656 C 267.605469 24.847656 265.070312 23.410156 262.496094 22.035156 C 259.925781 20.660156 257.320312 19.351562 254.6875 18.105469 C 252.050781 16.855469 249.382812 15.675781 246.691406 14.558594 C 243.996094 13.445312 241.277344 12.394531 238.53125 11.410156 C 235.785156 10.429688 233.015625 9.515625 230.226562 8.667969 C 227.433594 7.820312 224.625 7.042969 221.796875 6.335938 C 218.96875 5.628906 216.125 4.988281 213.261719 4.417969 C 210.402344 3.851562 207.53125 3.351562 204.644531 2.925781 C 201.761719 2.496094 198.867188 2.140625 195.964844 1.855469 C 193.0625 1.566406 190.15625 1.355469 187.242188 1.210938 C 184.332031 1.066406 181.417969 0.996094 178.5 0.996094 Z M 178.5 0.996094 "/>
</g>
</g>
</defs>
<g id="surface1">
<path style=" stroke:none;fill-rule:nonzero;fill:rgb(45.098877%,45.098877%,45.098877%);fill-opacity:1;" d="M 187.5 375 C 84.113281 375 0 290.886719 0 187.5 C 0 84.113281 84.113281 0 187.5 0 C 290.886719 0 375 84.113281 375 187.5 C 375 290.886719 290.886719 375 187.5 375 Z M 187.5 3.324219 C 85.945312 3.324219 3.324219 85.945312 3.324219 187.5 C 3.324219 289.054688 85.945312 371.675781 187.5 371.675781 C 289.054688 371.675781 371.675781 289.054688 371.675781 187.5 C 371.675781 85.945312 289.054688 3.324219 187.5 3.324219 Z M 187.5 3.324219 "/>
<use xlink:href="#surface5" transform="matrix(1,0,0,1,9,7)" mask="url(#mask0)"/>
<path style=" stroke:none;fill-rule:nonzero;fill:rgb(100%,100%,100%);fill-opacity:1;" d="M 252.617188 287.859375 C 251.964844 277.554688 255.078125 263.320312 261.390625 255.140625 C 286.527344 222.496094 297.675781 194.214844 292.410156 159.417969 C 292.339844 158.933594 292.257812 158.441406 292.183594 157.972656 C 291.652344 154.679688 288.824219 152.269531 285.503906 152.269531 L 85.78125 152.269531 C 82.007812 152.269531 78.894531 155.347656 79.007812 159.109375 C 79.007812 159.128906 79.007812 159.160156 79.007812 159.179688 C 79.230469 166.214844 80.449219 176.582031 80.429688 183.359375 C 80.367188 207.402344 59.578125 217.285156 59.167969 224.945312 C 58.511719 237.515625 73.265625 233.589844 78.472656 251.367188 C 85.082031 273.945312 75.613281 299.691406 106.355469 298.101562 C 118.632812 297.609375 138.5625 292.839844 147.109375 300.785156 C 152.5625 305.863281 156.949219 327.976562 158.660156 337.769531 C 159.132812 340.488281 161.5 342.457031 164.253906 342.457031 L 256.585938 342.457031 C 260.375 342.457031 263.101562 338.847656 262.046875 335.207031 C 258.972656 324.625 253.675781 304.425781 252.617188 287.859375 "/>
<path style=" stroke:none;fill-rule:nonzero;fill:rgb(100%,100%,100%);fill-opacity:1;" d="M 190.46875 152.238281 C 180.527344 152.238281 170.75 148.601562 164.222656 141.699219 C 150.625 127.335938 150.65625 105.394531 164.273438 91.757812 C 175.546875 80.488281 193.878906 80.488281 205.140625 91.757812 C 214.394531 101.015625 214.394531 116.085938 205.140625 125.347656 C 197.496094 133.003906 185.046875 133.003906 177.402344 125.347656 C 171.039062 118.988281 171.039062 108.625 177.402344 102.265625 C 182.742188 96.925781 191.421875 96.925781 196.75 102.265625 C 201.257812 106.777344 201.257812 114.117188 196.75 118.628906 C 195.53125 119.851562 193.550781 119.851562 192.332031 118.628906 C 191.113281 117.410156 191.113281 115.429688 192.332031 114.210938 C 194.402344 112.128906 194.402344 108.757812 192.332031 106.675781 C 189.433594 103.773438 184.71875 103.785156 181.820312 106.675781 C 177.894531 110.613281 177.894531 117 181.820312 120.925781 C 187.023438 126.144531 195.519531 126.144531 200.726562 120.925781 C 207.550781 114.109375 207.550781 103.003906 200.726562 96.175781 C 191.902344 87.335938 177.523438 87.335938 168.691406 96.175781 C 157.480469 107.402344 157.5 125.511719 168.761719 137.402344 C 177.800781 146.960938 194.496094 148.867188 206.761719 141.730469 C 208.257812 140.871094 210.164062 141.371094 211.035156 142.867188 C 211.894531 144.355469 211.394531 146.273438 209.898438 147.132812 C 203.984375 150.578125 197.179688 152.238281 190.46875 152.238281 "/>
<path style=" stroke:none;fill-rule:nonzero;fill:rgb(100%,100%,100%);fill-opacity:1;" d="M 216.792969 139.855469 C 216.023438 139.855469 215.257812 139.578125 214.652344 139.011719 C 213.390625 137.835938 213.328125 135.855469 214.507812 134.59375 C 215.726562 133.292969 216.710938 132.09375 217.828125 130.132812 C 218.679688 128.636719 220.59375 128.113281 222.082031 128.976562 C 223.585938 129.828125 224.101562 131.742188 223.25 133.242188 C 221.753906 135.855469 220.347656 137.484375 219.070312 138.871094 C 218.453125 139.527344 217.625 139.855469 216.792969 139.855469 "/>
<path style=" stroke:none;fill-rule:nonzero;fill:rgb(100%,100%,100%);fill-opacity:1;" d="M 263.5 143.164062 C 258.820312 143.164062 254.289062 141.648438 250.488281 138.777344 C 246.664062 135.886719 244.195312 131.671875 243.527344 126.925781 C 242.875 122.167969 244.101562 117.441406 246.992188 113.617188 C 249.402344 110.425781 252.914062 108.367188 256.882812 107.8125 C 260.835938 107.257812 264.78125 108.285156 267.980469 110.703125 C 270.664062 112.734375 272.40625 115.6875 272.867188 119.03125 C 273.328125 122.363281 272.46875 125.683594 270.4375 128.382812 C 268.71875 130.65625 266.207031 132.132812 263.367188 132.535156 C 260.550781 132.921875 257.710938 132.195312 255.425781 130.460938 C 254.054688 129.425781 253.777344 127.457031 254.820312 126.085938 C 255.855469 124.710938 257.824219 124.433594 259.199219 125.480469 C 260.152344 126.195312 261.320312 126.503906 262.507812 126.339844 C 263.695312 126.175781 264.730469 125.5625 265.457031 124.609375 C 266.484375 123.253906 266.914062 121.574219 266.679688 119.890625 C 266.453125 118.210938 265.570312 116.710938 264.21875 115.6875 C 262.355469 114.273438 260.046875 113.667969 257.742188 113.996094 C 255.425781 114.324219 253.386719 115.523438 251.972656 117.390625 C 250.085938 119.882812 249.289062 122.96875 249.71875 126.0625 C 250.148438 129.160156 251.757812 131.90625 254.257812 133.792969 C 257.539062 136.277344 261.59375 137.332031 265.675781 136.769531 C 269.753906 136.195312 273.359375 134.070312 275.839844 130.789062 C 282.429688 122.066406 280.6875 109.699219 271.875 102.644531 C 267.128906 98.839844 260.253906 97.632812 253.488281 99.414062 C 247.167969 101.078125 242.15625 105.15625 240.085938 110.335938 C 239.441406 111.945312 237.617188 112.714844 236.019531 112.078125 C 234.417969 111.433594 233.652344 109.617188 234.285156 108.019531 C 237.136719 100.902344 243.550781 95.570312 251.890625 93.367188 C 260.5625 91.082031 269.484375 92.730469 275.777344 97.765625 C 287.253906 106.953125 289.46875 123.109375 280.832031 134.554688 C 277.335938 139.175781 272.253906 142.160156 266.523438 142.949219 C 265.519531 143.09375 264.507812 143.164062 263.5 143.164062 "/>
<path style=" stroke:none;fill-rule:nonzero;fill:rgb(100%,100%,100%);fill-opacity:1;" d="M 236.316406 89.089844 C 233.464844 89.089844 230.6875 88.269531 228.261719 86.660156 C 224.972656 84.507812 222.738281 81.1875 221.9375 77.339844 C 220.566406 70.65625 224.890625 64.082031 231.582031 62.710938 C 237.277344 61.53125 242.851562 65.210938 244.019531 70.902344 C 244.511719 73.269531 244.042969 75.691406 242.710938 77.710938 C 241.386719 79.730469 239.347656 81.113281 236.980469 81.597656 C 235.28125 81.953125 233.640625 80.859375 233.292969 79.175781 C 232.945312 77.472656 234.03125 75.832031 235.71875 75.484375 C 236.457031 75.332031 237.082031 74.902344 237.492188 74.273438 C 237.914062 73.648438 238.046875 72.902344 237.902344 72.164062 C 237.421875 69.847656 235.148438 68.347656 232.839844 68.832031 C 229.519531 69.507812 227.378906 72.769531 228.054688 76.089844 C 228.515625 78.292969 229.808594 80.203125 231.695312 81.441406 C 233.578125 82.691406 235.84375 83.113281 238.046875 82.671875 C 244.175781 81.402344 248.140625 75.382812 246.878906 69.25 C 245.230469 61.253906 237.441406 56.136719 229.109375 57.613281 C 224.644531 58.402344 220.585938 61.683594 218.238281 66.378906 C 216.054688 70.757812 215.871094 75.566406 217.738281 79.269531 C 218.515625 80.804688 217.898438 82.683594 216.363281 83.460938 C 214.824219 84.242188 212.949219 83.625 212.171875 82.089844 C 209.363281 76.5625 209.539062 69.816406 212.644531 63.589844 C 215.871094 57.132812 221.621094 52.601562 228.023438 51.460938 C 239.707031 49.390625 250.660156 56.648438 252.996094 67.988281 C 254.957031 77.503906 248.808594 86.835938 239.308594 88.785156 C 238.3125 89 237.308594 89.089844 236.316406 89.089844 "/>
<path style=" stroke:none;fill-rule:nonzero;fill:rgb(100%,100%,100%);fill-opacity:1;" d="M 228.097656 125.480469 C 227.460938 125.480469 226.816406 125.285156 226.253906 124.875 C 224.867188 123.859375 224.5625 121.902344 225.574219 120.507812 C 227.777344 117.503906 228.507812 116.640625 228.628906 116.507812 C 229.765625 115.207031 231.734375 115.074219 233.035156 116.210938 C 234.335938 117.347656 234.46875 119.328125 233.332031 120.621094 C 233.3125 120.640625 232.667969 121.398438 230.617188 124.199219 C 230.003906 125.039062 229.058594 125.480469 228.097656 125.480469 "/>
<path style=" stroke:none;fill-rule:nonzero;fill:rgb(100%,100%,100%);fill-opacity:1;" d="M 154.519531 141.207031 C 153.957031 141.207031 153.390625 141.054688 152.890625 140.746094 C 151.28125 139.761719 149.507812 138.5625 147.367188 136.417969 C 146.148438 135.199219 146.136719 133.21875 147.355469 132 C 148.574219 130.78125 150.554688 130.78125 151.773438 132 C 153.371094 133.589844 154.632812 134.492188 156.148438 135.414062 C 157.625 136.316406 158.085938 138.246094 157.171875 139.710938 C 156.589844 140.675781 155.566406 141.207031 154.519531 141.207031 "/>
<path style=" stroke:none;fill-rule:nonzero;fill:rgb(100%,100%,100%);fill-opacity:1;" d="M 105.074219 145.667969 C 104.070312 145.667969 103.058594 145.597656 102.050781 145.453125 C 96.324219 144.664062 91.242188 141.679688 87.757812 137.054688 C 79.109375 125.613281 81.320312 109.453125 92.800781 100.257812 C 99.089844 95.234375 108.027344 93.59375 116.6875 95.867188 C 125.027344 98.074219 131.441406 103.40625 134.292969 110.519531 C 134.925781 112.121094 134.15625 113.933594 132.558594 114.582031 C 130.960938 115.214844 129.125 114.4375 128.492188 112.835938 C 126.421875 107.660156 121.410156 103.578125 115.085938 101.917969 C 108.324219 100.132812 101.457031 101.34375 96.703125 105.136719 C 87.890625 112.203125 86.148438 124.566406 92.738281 133.292969 C 95.21875 136.574219 98.824219 138.695312 102.902344 139.257812 C 106.980469 139.832031 111.039062 138.777344 114.320312 136.296875 C 116.820312 134.410156 118.429688 131.660156 118.859375 128.566406 C 119.289062 125.457031 118.488281 122.382812 116.605469 119.890625 C 115.191406 118.023438 113.152344 116.816406 110.835938 116.496094 C 108.527344 116.179688 106.222656 116.773438 104.359375 118.1875 C 103.003906 119.214844 102.125 120.703125 101.898438 122.394531 C 101.664062 124.074219 102.09375 125.746094 103.117188 127.109375 C 103.847656 128.0625 104.878906 128.679688 106.070312 128.84375 C 107.257812 129.007812 108.425781 128.699219 109.378906 127.980469 C 110.753906 126.933594 112.71875 127.210938 113.753906 128.585938 C 114.800781 129.960938 114.523438 131.917969 113.152344 132.964844 C 110.867188 134.6875 108.035156 135.425781 105.207031 135.023438 C 102.371094 134.636719 99.859375 133.160156 98.136719 130.871094 C 96.109375 128.1875 95.25 124.863281 95.710938 121.53125 C 96.171875 118.1875 97.914062 115.238281 100.597656 113.195312 C 103.792969 110.785156 107.730469 109.761719 111.695312 110.316406 C 115.660156 110.859375 119.175781 112.929688 121.585938 116.117188 C 124.472656 119.941406 125.703125 124.667969 125.046875 129.425781 C 124.382812 134.175781 121.914062 138.386719 118.089844 141.28125 C 114.289062 144.148438 109.757812 145.667969 105.074219 145.667969 "/>
<path style=" stroke:none;fill-rule:nonzero;fill:rgb(100%,100%,100%);fill-opacity:1;" d="M 141.554688 129.160156 C 140.789062 129.160156 140.019531 128.875 139.425781 128.308594 C 136.832031 125.890625 135.511719 123.488281 135.367188 123.222656 C 134.546875 121.695312 135.121094 119.800781 136.648438 118.988281 C 138.164062 118.179688 140.058594 118.753906 140.871094 120.269531 C 140.871094 120.269531 141.84375 122.023438 143.6875 123.746094 C 144.949219 124.925781 145.011719 126.90625 143.832031 128.164062 C 143.214844 128.820312 142.386719 129.160156 141.554688 129.160156 "/>
<path style=" stroke:none;fill-rule:nonzero;fill:rgb(100%,100%,100%);fill-opacity:1;" d="M 217.992188 100.226562 C 217.871094 100.226562 217.738281 100.226562 217.613281 100.207031 C 215.890625 100 214.683594 98.441406 214.886719 96.730469 C 214.886719 96.730469 215.03125 95.070312 214.40625 91.625 C 214.089844 89.933594 215.214844 88.300781 216.917969 87.992188 C 218.636719 87.6875 220.238281 88.8125 220.542969 90.507812 C 221.34375 94.882812 221.136719 97.089844 221.085938 97.488281 C 220.902344 99.066406 219.550781 100.226562 217.992188 100.226562 "/>
<path style=" stroke:none;fill-rule:nonzero;fill:rgb(100%,100%,100%);fill-opacity:1;" d="M 132.261719 91.59375 C 131.269531 91.59375 130.265625 91.492188 129.269531 91.285156 C 119.769531 89.335938 113.621094 80.007812 115.578125 70.492188 C 117.914062 59.152344 128.890625 51.894531 140.550781 53.964844 C 146.957031 55.101562 152.707031 59.632812 155.933594 66.082031 C 159.039062 72.316406 159.214844 79.0625 156.40625 84.589844 C 155.625 86.128906 153.75 86.742188 152.214844 85.964844 C 150.675781 85.183594 150.0625 83.296875 150.839844 81.761719 C 152.707031 78.070312 152.519531 73.261719 150.339844 68.882812 C 147.992188 64.1875 143.933594 60.90625 139.464844 60.117188 C 131.136719 58.640625 123.347656 63.753906 121.695312 71.753906 C 120.4375 77.882812 124.402344 83.902344 130.53125 85.164062 C 132.742188 85.625 135 85.195312 136.882812 83.945312 C 138.769531 82.703125 140.058594 80.796875 140.523438 78.582031 C 141.199219 75.269531 139.054688 72.007812 135.734375 71.324219 C 133.429688 70.859375 131.15625 72.347656 130.671875 74.664062 C 130.53125 75.394531 130.664062 76.152344 131.082031 76.777344 C 131.492188 77.402344 132.117188 77.832031 132.855469 77.976562 C 134.546875 78.324219 135.632812 79.976562 135.285156 81.667969 C 134.9375 83.359375 133.296875 84.445312 131.597656 84.097656 C 129.230469 83.617188 127.191406 82.230469 125.867188 80.210938 C 124.535156 78.191406 124.0625 75.773438 124.554688 73.402344 C 125.734375 67.714844 131.320312 64.042969 136.996094 65.203125 C 143.6875 66.585938 148.011719 73.148438 146.640625 79.84375 C 145.839844 83.6875 143.605469 87.007812 140.316406 89.164062 C 137.886719 90.761719 135.109375 91.59375 132.261719 91.59375 "/>
<path style=" stroke:none;fill-rule:nonzero;fill:rgb(100%,100%,100%);fill-opacity:1;" d="M 148.976562 101.109375 C 147.265625 101.109375 145.871094 99.734375 145.851562 98.019531 C 145.851562 97.746094 145.871094 95.152344 147.160156 90.804688 C 147.664062 89.152344 149.40625 88.21875 151.054688 88.703125 C 152.707031 89.195312 153.648438 90.9375 153.15625 92.597656 C 152.132812 96.011719 152.101562 97.96875 152.101562 97.992188 C 152.082031 99.703125 150.699219 101.109375 148.976562 101.109375 "/>
<path style=" stroke:none;fill-rule:nonzero;fill:rgb(100%,100%,100%);fill-opacity:1;" d="M 178.929688 68.429688 C 177.769531 68.429688 176.652344 67.785156 176.121094 66.667969 C 175.179688 64.710938 173.3125 61.785156 169.746094 58.945312 C 164.46875 54.742188 161.261719 48.160156 161.160156 41.34375 C 161.066406 35.089844 163.527344 29.519531 168.066406 25.675781 C 177.117188 18.007812 190.253906 18.765625 197.96875 27.386719 C 201.09375 30.90625 202.683594 35.414062 202.417969 40.113281 C 202.160156 44.808594 200.089844 49.125 196.585938 52.261719 C 193.65625 54.875 189.894531 56.1875 185.957031 55.984375 C 182.042969 55.769531 178.4375 54.035156 175.824219 51.101562 C 173.609375 48.632812 172.503906 45.453125 172.6875 42.152344 C 172.871094 38.839844 174.328125 35.804688 176.796875 33.601562 C 178.886719 31.726562 181.613281 30.792969 184.402344 30.933594 C 187.210938 31.089844 189.792969 32.328125 191.667969 34.433594 C 194.996094 38.152344 194.679688 43.886719 190.960938 47.21875 C 189.667969 48.367188 187.691406 48.261719 186.542969 46.972656 C 185.394531 45.691406 185.507812 43.710938 186.789062 42.5625 C 187.351562 42.058594 187.679688 41.375 187.722656 40.625 C 187.761719 39.875 187.515625 39.160156 187.015625 38.59375 C 186.246094 37.742188 185.199219 37.230469 184.054688 37.167969 C 182.882812 37.117188 181.808594 37.496094 180.957031 38.257812 C 179.738281 39.351562 179.011719 40.859375 178.917969 42.5 C 178.828125 44.140625 179.378906 45.710938 180.476562 46.941406 C 181.984375 48.621094 184.054688 49.617188 186.308594 49.738281 C 188.582031 49.863281 190.734375 49.105469 192.414062 47.597656 C 194.679688 45.578125 196.011719 42.796875 196.1875 39.761719 C 196.351562 36.738281 195.335938 33.828125 193.304688 31.5625 C 187.863281 25.46875 178.550781 24.976562 172.105469 30.441406 C 169.007812 33.058594 167.339844 36.902344 167.410156 41.25 C 167.484375 46.222656 169.808594 51.011719 173.640625 54.066406 C 178.121094 57.632812 180.527344 61.417969 181.746094 63.949219 C 182.496094 65.507812 181.839844 67.375 180.28125 68.125 C 179.839844 68.339844 179.390625 68.429688 178.929688 68.429688 "/>
<path style=" stroke:none;fill-rule:nonzero;fill:rgb(100%,100%,100%);fill-opacity:1;" d="M 184.042969 80.847656 C 182.609375 80.847656 181.316406 79.851562 180.988281 78.398438 C 180.988281 78.398438 180.660156 76.960938 179.667969 74.644531 C 178.992188 73.054688 179.726562 71.21875 181.316406 70.542969 C 182.90625 69.867188 184.730469 70.605469 185.414062 72.183594 C 186.636719 75.035156 187.046875 76.847656 187.097656 77.054688 C 187.464844 78.734375 186.398438 80.40625 184.71875 80.777344 C 184.492188 80.828125 184.257812 80.847656 184.042969 80.847656 "/>
<path style=" stroke:none;fill-rule:nonzero;fill:rgb(100%,100%,100%);fill-opacity:1;" d="M 149.847656 116.671875 C 148.710938 116.671875 147.613281 116.046875 147.058594 114.949219 C 146.855469 114.539062 145.011719 110.777344 144.988281 107.105469 C 144.980469 105.382812 146.363281 103.96875 148.09375 103.957031 C 148.09375 103.957031 148.105469 103.957031 148.113281 103.957031 C 149.828125 103.957031 151.21875 105.34375 151.230469 107.066406 C 151.25 108.953125 152.277344 111.421875 152.632812 112.140625 C 153.414062 113.6875 152.796875 115.566406 151.25 116.332031 C 150.800781 116.570312 150.328125 116.671875 149.847656 116.671875 "/>
<path style=" stroke:none;fill-rule:nonzero;fill:rgb(100%,100%,100%);fill-opacity:1;" d="M 215.6875 115.699219 C 215.265625 115.699219 214.824219 115.605469 214.40625 115.410156 C 212.839844 114.703125 212.140625 112.847656 212.847656 111.277344 C 212.859375 111.257812 213.894531 108.910156 214.058594 106.378906 C 214.171875 104.65625 215.585938 103.351562 217.367188 103.464844 C 219.097656 103.570312 220.402344 105.054688 220.289062 106.777344 C 220.050781 110.417969 218.6875 113.515625 218.535156 113.851562 C 218.011719 115.011719 216.875 115.699219 215.6875 115.699219 "/>
</g>
</svg>
